<?xml version="1.0" encoding="utf-8"?>
<!-- Generator: Adobe Illustrator 23.0.0, SVG Export Plug-In . SVG Version: 6.00 Build 0)  -->
<svg version="1.1" id="Layer_1" xmlns="http://www.w3.org/2000/svg" xmlns:xlink="http://www.w3.org/1999/xlink" x="0px" y="0px"
	 viewBox="0 0 300 300" style="enable-background:new 0 0 300 300;" xml:space="preserve">
<style type="text/css">
	.st0{fill:#FFFFFF;}
</style>
<path class="st0" d="M285.8,149.7L285.8,149.7L285.8,149.7l-126.39,3.8l61.2-56.16c1.87-1.85,3.02-4.41,3.02-7.25
	c0-5.63-4.57-10.2-10.2-10.2c-3.2,0-6.06,1.48-7.93,3.79l-55.58,60.55l3.75-118.38v0c0-5.63-4.57-10.2-10.2-10.2
	c-5.63,0-10.2,4.57-10.2,10.2v0l3.75,118.31l-55-60.23c-1.86-2.46-4.8-4.06-8.13-4.06c-5.63,0-10.2,4.57-10.2,10.2
	c0,3.18,1.46,6.02,3.74,7.89l60.15,55.5l-82.19-3.21c-5.63,0-10.2,4.57-10.2,10.2c0,5.63,4.57,10.2,10.2,10.2l66.71-3.18
	L11.48,212.28c-3.74,1.51-6.37,5.17-6.37,9.45c0,5.63,4.57,10.2,10.2,10.2c1.83,0,3.54-0.49,5.02-1.33L137,170.11l-3.66,71.14
	c-0.04,0.35-0.05,0.7-0.05,1.05c0,5.63,4.57,10.2,10.2,10.2c5.63,0,10.2-4.57,10.2-10.2c0-0.36-0.02-0.71-0.05-1.06l-3.69-71.14
	l116.88,60.56c0.07,0.04,0.13,0.07,0.2,0.1l0.23,0.12l0-0.01c1.36,0.67,2.87,1.05,4.48,1.05c5.63,0,10.2-4.57,10.2-10.2
	c0-3.89-2.18-7.26-5.37-8.99v0l0,0c-0.4-0.22-0.82-0.4-1.26-0.56l-102.14-45.43l112.62,3.34c0,0,0,0,0,0h0h0v0
	c5.63,0,10.2-4.57,10.2-10.2C296,154.26,291.43,149.7,285.8,149.7z"/>
</svg>
